<svg xmlns="http://www.w3.org/2000/svg" viewBox="0 0 520 80" fill="none">
  <g transform="translate(0, 5)">
    <path d="M8 58 C8 58 18 65 30 60 C32 59 34 57 34 55 L34 48 C34 46 32 44 30 44 L12 44 C10 44 8 46 8 48 Z" fill="#ffffff"/>
    <rect x="14" y="8" width="6" height="36" rx="1" fill="#ffffff"/>
    <rect x="22" y="16" width="6" height="28" rx="1" fill="#ffffff"/>
    <rect x="30" y="22" width="6" height="22" rx="1" fill="#ffffff"/>
    <path d="M12 8 L20 2 L38 18" stroke="#ffffff" stroke-width="2.5" fill="none" stroke-linecap="round"/>
    <path d="M4 52 C4 52 2 62 10 66 C18 70 32 66 38 60 C40 58 40 54 38 52" stroke="#ffffff" stroke-width="2.5" fill="none" stroke-linecap="round"/>
  </g>
  <text x="60" y="54" font-family="Montserrat, 'Segoe UI', Arial, sans-serif" font-weight="800" font-size="42" fill="#ffffff" letter-spacing="3">
    EL LIBERTADOR
  </text>
</svg>